<svg width="63" height="63" viewBox="0 0 63 63" fill="none" xmlns="http://www.w3.org/2000/svg">
    <path d="M10.5 38.3591C4.94591 40.8092 1.5 44.2235 1.5 48C1.5 55.4558 14.9315 61.5 31.5 61.5C48.0685 61.5 61.5 55.4558 61.5 48C61.5 44.2235 58.0541 40.8092 52.5 38.3591M25.1204 12.375C23.096 14.2116 21.7462 16.8103 21.7462 19.5C21.7462 21.9809 22.8928 24.3836 24.6575 26.183M25.1204 12.375C26.8838 10.7753 29.159 9.75376 31.5 9.75376C33.841 9.75376 36.1162 10.7753 37.8796 12.375M25.1204 12.375C25.1204 12.375 29.0086 14.625 31.5 14.625C33.9914 14.625 37.8796 12.375 37.8796 12.375M37.8796 12.375C39.904 14.2116 41.2537 16.8103 41.2537 19.5C41.2537 21.9809 40.1072 24.3836 38.3425 26.183M24.6575 26.183C26.4751 28.0365 28.9485 29.25 31.5 29.25C34.0515 29.25 36.5249 28.0365 38.3425 26.183M24.6575 26.183C24.6575 26.183 28.8278 24.1875 31.5 24.1875C34.1722 24.1875 38.3425 26.183 38.3425 26.183M49.5 19.5C49.5 31.6911 36 37.5 31.5 46.5C27 37.5 13.5 31.6911 13.5 19.5C13.5 9.55887 21.5589 1.5 31.5 1.5C41.4411 1.5 49.5 9.55887 49.5 19.5Z" stroke="#01001F" stroke-width="1.6" stroke-linecap="round" stroke-linejoin="round"/>
</svg>
