<svg width="517" height="345" viewBox="0 0 517 345" fill="none" xmlns="http://www.w3.org/2000/svg">
    <g clip-path="url(#clip0_2_1170)">
        <path d="M0 0.00390625H517V344.663H0V0.00390625Z" fill="#D80027"/>
        <path d="M0 239.769H517V344.663H0V239.769Z" fill="#6DA544"/>
        <path d="M0 0.00390625H517V105.54H0V0.00390625Z" fill="#338AF3"/>
        <path d="M0 126.77H517V217.301H0V126.77Z" fill="white"/>
        <path d="M0 0.00390625H517V105.54H0V0.00390625Z" fill="#338AF3"/>
        <path d="M190.531 52.7659C190.531 36.6258 201.874 23.1404 217.023 19.8334C214.65 19.3134 212.228 19.0504 209.798 19.0488C191.176 19.0488 176.081 34.1438 176.081 52.7659C176.081 71.388 191.176 86.483 209.798 86.483C212.28 86.483 214.695 86.2073 217.023 85.6984C201.874 82.3914 190.531 68.906 190.531 52.7659ZM236.95 68.0911L239.233 75.1161H246.619L240.643 79.4591L242.927 86.483L236.95 82.141L230.974 86.483L233.257 79.4591L227.281 75.1161H234.668L236.95 68.0911ZM260.526 68.0911L262.808 75.1161H270.194L264.218 79.4591L266.502 86.483L260.526 82.141L254.55 86.483L256.832 79.4591L250.857 75.1161H258.243L260.526 68.0911ZM284.101 68.0911L286.383 75.1161H293.769L287.794 79.4591L290.077 86.483L284.101 82.141L278.125 86.483L280.407 79.4591L274.431 75.1161H281.818L284.101 68.0911ZM307.676 68.0911L309.96 75.1161H317.346L311.369 79.4591L313.653 86.483L307.676 82.141L301.7 86.483L303.984 79.4591L298.007 75.1161H305.393L307.676 68.0911ZM331.252 68.0911L333.534 75.1161H340.92L334.944 79.4591L337.228 86.483L331.252 82.141L325.276 86.483L327.558 79.4591L321.583 75.1161H328.969L331.252 68.0911ZM260.526 43.57L262.808 50.5939H270.194L264.218 54.9359L266.502 61.9608L260.526 57.6199L254.55 61.9608L256.832 54.9359L250.857 50.5939H258.243L260.526 43.57ZM284.101 43.57L286.383 50.5939H293.769L287.794 54.9359L290.077 61.9608L284.101 57.6199L278.125 61.9608L280.407 54.9359L274.431 50.5939H281.818L284.101 43.57ZM307.676 43.57L309.96 50.5939H317.346L311.369 54.9359L313.653 61.9608L307.676 57.6199L301.7 61.9608L303.984 54.9359L298.007 50.5939H305.393L307.676 43.57ZM331.252 43.57L333.534 50.5939H340.92L334.944 54.9359L337.228 61.9608L331.252 57.6199L325.276 61.9608L327.558 54.9359L321.583 50.5939H328.969L331.252 43.57ZM284.101 19.0488L286.383 26.0728H293.769L287.794 30.4148L290.077 37.4397L284.101 33.0977L278.125 37.4397L280.407 30.4148L274.431 26.0728H281.818L284.101 19.0488ZM307.676 19.0488L309.96 26.0728H317.346L311.369 30.4148L313.653 37.4397L307.676 33.0977L301.7 37.4397L303.984 30.4148L298.007 26.0728H305.393L307.676 19.0488ZM331.252 19.0488L333.534 26.0728H340.92L334.944 30.4148L337.228 37.4397L331.252 33.0977L325.276 37.4397L327.558 30.4148L321.583 26.0728H328.969L331.252 19.0488Z" fill="white"/>
    </g>
    <defs>
        <clipPath id="clip0_2_1170">
            <rect width="517" height="344.666" fill="white"/>
        </clipPath>
    </defs>
</svg>
